<svg width="24" height="25" viewBox="0 0 24 25" fill="none" xmlns="http://www.w3.org/2000/svg">
<path d="M16.5236 14.0027L17.3771 13.1491H16.17H5C4.72614 13.1491 4.5 12.923 4.5 12.6491C4.5 12.3753 4.72614 12.1491 5 12.1491H16.17H17.3736L16.5243 11.2963L11.6543 6.40631L11.6536 6.40559C11.4588 6.21085 11.4588 5.89743 11.6536 5.70269C11.8482 5.50808 12.1613 5.50796 12.3561 5.70232C12.3562 5.70245 12.3563 5.70257 12.3564 5.70269L18.9359 12.3022L18.9364 12.3027C19.1312 12.4974 19.1312 12.8108 18.9364 13.0056L12.3464 19.5956C12.1517 19.7903 11.8383 19.7903 11.6436 19.5956C11.4488 19.4008 11.4488 19.0774 11.6436 18.8827L16.5236 14.0027Z" fill="#1E194F" stroke="#1E194F"/>
</svg>
